<?xml version="1.0" encoding="UTF-8" standalone="no"?>
<svg
   xmlns:dc="http://purl.org/dc/elements/1.1/"
   xmlns:cc="http://creativecommons.org/ns#"
   xmlns:rdf="http://www.w3.org/1999/02/22-rdf-syntax-ns#"
   xmlns:svg="http://www.w3.org/2000/svg"
   xmlns="http://www.w3.org/2000/svg"
   xmlns:xlink="http://www.w3.org/1999/xlink"
   xmlns:sodipodi="http://sodipodi.sourceforge.net/DTD/sodipodi-0.dtd"
   xmlns:inkscape="http://www.inkscape.org/namespaces/inkscape"
   version="1.1"
   id="tiles"
   x="0px"
   y="0px"
   sodipodi:docname="jcw_header_inkscape.svg"
   width="210mm"
   height="297mm"
   inkscape:version="0.92.4 (5da689c313, 2019-01-14)">
  <metadata
     id="metadata124">
    <rdf:RDF>
      <cc:Work
         rdf:about="">
        <dc:format>image/svg+xml</dc:format>
        <dc:type
           rdf:resource="http://purl.org/dc/dcmitype/StillImage" />
        <dc:title></dc:title>
      </cc:Work>
    </rdf:RDF>
  </metadata>
  <defs
     id="defs122" />
  <sodipodi:namedview
     pagecolor="#ffffff"
     bordercolor="#666666"
     borderopacity="1"
     objecttolerance="10"
     gridtolerance="10"
     guidetolerance="10"
     inkscape:pageopacity="0"
     inkscape:pageshadow="2"
     inkscape:window-width="1920"
     inkscape:window-height="1001"
     id="namedview120"
     showgrid="false"
     units="mm"
     inkscape:zoom="0.6374378"
     inkscape:cx="532.51819"
     inkscape:cy="561.50479"
     inkscape:window-x="-9"
     inkscape:window-y="-9"
     inkscape:window-maximized="1"
     inkscape:current-layer="tiles" />
  <style
     type="text/css"
     id="style2">
	.st0{fill:none;}
	.st1{fill:none;stroke:#16397B;stroke-width:2;stroke-linecap:round;stroke-linejoin:round;stroke-miterlimit:10;}
	.st2{fill:none;stroke:#41CEB8;stroke-width:2;stroke-linecap:round;stroke-linejoin:round;stroke-miterlimit:10;}
	.st3{fill:none;stroke:#C78514;stroke-width:2;stroke-linecap:round;stroke-linejoin:round;stroke-miterlimit:10;}
	.st4{fill:none;stroke:#FAA61A;stroke-width:2;stroke-linecap:round;stroke-linejoin:round;stroke-miterlimit:10;}
	.st5{fill:none;stroke:#8A9CBD;stroke-width:2;stroke-linecap:round;stroke-linejoin:round;stroke-miterlimit:10;}
	.st6{fill:none;stroke:#329C8C;stroke-width:2;stroke-linecap:round;stroke-linejoin:round;stroke-miterlimit:10;}
	.st7{fill:url(#SVGID_1_);}
</style>
  <pattern
     x="-583"
     y="-284"
     width="307.2"
     height="302.9"
     patternUnits="userSpaceOnUse"
     id="New_Pattern_Swatch_1"
     viewBox="0 -302.9 307.2 302.9">
    <g
       id="g114">
      <rect
         y="-302.9"
         class="st0"
         width="307.2"
         height="302.9"
         id="rect4" />
      <g
         id="Group_279_2_"
         transform="translate(1 0.946)">
        <g
           id="Group_35_2_"
           transform="translate(97.641 52.155)">
          <line
             id="Line_3_2_"
             class="st1"
             x1="0"
             y1="-302.7"
             x2="8.2"
             y2="-294.9" />
          <line
             id="Line_4_2_"
             class="st1"
             x1="8"
             y1="-302.9"
             x2="0.2"
             y2="-294.7" />
        </g>
        <g
           id="Group_36_2_"
           transform="translate(107.129 171.157)">
          <line
             id="Line_5_2_"
             class="st1"
             x1="0"
             y1="-302.7"
             x2="8.3"
             y2="-294.9" />
          <line
             id="Line_6_2_"
             class="st1"
             x1="8"
             y1="-302.9"
             x2="0.3"
             y2="-294.7" />
        </g>
        <g
           id="Group_37_2_"
           transform="translate(6.506 237.624)">
          <line
             id="Line_7_2_"
             class="st1"
             x1="0"
             y1="-302.7"
             x2="8.3"
             y2="-294.9" />
          <line
             id="Line_8_2_"
             class="st1"
             x1="8"
             y1="-302.9"
             x2="0.3"
             y2="-294.7" />
        </g>
        <g
           id="Group_38_2_"
           transform="translate(296.989 51.992)">
          <line
             id="Line_9_2_"
             class="st1"
             x1="0"
             y1="-302.7"
             x2="8.2"
             y2="-295" />
          <line
             id="Line_10_2_"
             class="st1"
             x1="8"
             y1="-302.9"
             x2="0.2"
             y2="-294.7" />
        </g>
        <g
           id="Group_39_2_"
           transform="translate(199.403 94.171)">
          <line
             id="Line_11_2_"
             class="st1"
             x1="0"
             y1="-302.7"
             x2="8.3"
             y2="-295" />
          <line
             id="Line_12_2_"
             class="st1"
             x1="8"
             y1="-302.9"
             x2="0.3"
             y2="-294.7" />
        </g>
        <g
           id="Group_40_2_"
           transform="translate(239.738 186.228)">
          <line
             id="Line_13_2_"
             class="st1"
             x1="0"
             y1="-302.7"
             x2="8.2"
             y2="-294.9" />
          <line
             id="Line_14_2_"
             class="st1"
             x1="8"
             y1="-302.9"
             x2="0.3"
             y2="-294.7" />
        </g>
        <g
           id="Group_41_2_"
           transform="translate(233.341 261.208)">
          <line
             id="Line_15_2_"
             class="st1"
             x1="0"
             y1="-302.7"
             x2="8.2"
             y2="-294.9" />
          <line
             id="Line_16_2_"
             class="st1"
             x1="8"
             y1="-302.9"
             x2="0.2"
             y2="-294.7" />
        </g>
        <path
           id="Path_43_2_"
           class="st2"
           d="M173.1-220.5h-22.8l5.7-9.9l5.7-9.8l5.7,9.8L173.1-220.5z" />
        <path
           id="Path_44_2_"
           class="st3"
           d="M154.2-100.1h-22.7l5.7-9.9l5.6-9.8l5.7,9.8L154.2-100.1z" />
        <path
           id="Path_45_2_"
           class="st2"
           d="M219.5-63.2l-11.4,0.1h-11.4l5.7-9.9l5.7-9.9l5.7,9.9L219.5-63.2z" />
        <path
           id="Path_46_2_"
           class="st3"
           d="M248.4-137.6l-8-8l-8.1-8l11-3l11-2.9l-2.9,11L248.4-137.6z" />
        <path
           id="Path_47_2_"
           class="st4"
           d="M61.4-265.2l-8.1-8l-8-8l11-3l11-2.9l-2.9,11L61.4-265.2z" />
        <path
           id="Path_48_2_"
           class="st5"
           d="M53.6-27.8l-8-8l-8.1-8l11-2.9l11-3l-2.9,11L53.6-27.8z" />
        <path
           id="Path_49_2_"
           class="st3"
           d="M253-258.2v-22.7l9.9,5.6l9.8,5.7l-9.8,5.7L253-258.2z" />
        <path
           id="Path_50_2_"
           class="st2"
           d="M46.4-144.6v-22.8l9.8,5.7l9.9,5.7l-9.8,5.7L46.4-144.6z" />
        <path
           id="Path_51_2_"
           class="st6"
           d="M186.6-169c0-4.8-3.9-8.6-8.6-8.6l0,0c-4.8,0-8.6,3.9-8.6,8.6c0,4.8,3.9,8.6,8.6,8.6     S186.6-164.2,186.6-169C186.6-168.9,186.6-168.9,186.6-169z" />
        <path
           id="Path_52_2_"
           class="st4"
           d="M143-265.2c0-4.8-3.9-8.6-8.6-8.6l0,0c-4.8,0-8.6,3.9-8.6,8.6c0,4.8,3.9,8.6,8.6,8.6     C139.1-256.6,143-260.5,143-265.2C143-265.2,143-265.2,143-265.2z" />
        <path
           id="Path_53_2_"
           class="st5"
           d="M148.5-10.6c0-4.8-3.9-8.6-8.6-8.6l0,0c-4.8,0-8.6,3.9-8.6,8.6c0,4.8,3.9,8.6,8.6,8.6     S148.5-5.8,148.5-10.6C148.5-10.6,148.5-10.6,148.5-10.6z" />
        <path
           id="Path_54_2_"
           class="st3"
           d="M188.8-23.5c0-4.8-3.9-8.6-8.6-8.6c-4.8,0-8.6,3.9-8.6,8.6" />
        <path
           id="Path_55_2_"
           class="st4"
           d="M119.9-156c0-4.8-3.9-8.6-8.6-8.6c-4.8,0-8.6,3.9-8.6,8.6" />
        <path
           id="Path_56_2_"
           class="st6"
           d="M29.1-226C29.1-226,29.1-226,29.1-226c0-4.7-3.8-8.6-8.6-8.6c-4.7,0-8.6,3.8-8.6,8.6" />
        <path
           id="Path_57_2_"
           class="st5"
           d="M229.4-229.1c-4.7,0-8.6,3.8-8.6,8.6c0,4.7,3.8,8.6,8.6,8.6" />
        <path
           id="Path_58_2_"
           class="st2"
           d="M21.6-27.8c-4.7,0-8.6,3.8-8.6,8.6c0,4.7,3.8,8.6,8.6,8.6" />
        <path
           id="Path_59_2_"
           class="st6"
           d="M114.2-302.1C114.2-302.1,114.2-302.1,114.2-302.1c-4.7,0-8.6,3.8-8.6,8.6     c0,4.7,3.8,8.6,8.6,8.6" />
        <path
           id="Path_60_2_"
           class="st2"
           d="M26-101.4c0-4.8-3.9-8.6-8.6-8.6h0c-4.8,0-8.6,3.9-8.6,8.6c0,4.8,3.9,8.6,8.6,8.6     S26-96.6,26-101.4C26-101.4,26-101.4,26-101.4z" />
        <path
           id="Path_61_2_"
           class="st2"
           d="M292-91.5c0-4.8-3.9-8.6-8.6-8.6l0,0c-4.8,0-8.6,3.9-8.6,8.6c0,4.8,3.9,8.6,8.6,8.6     S292-86.7,292-91.5C292-91.5,292-91.5,292-91.5z" />
        <rect
           id="Rectangle_14_2_"
           x="268.1"
           y="-229.1"
           class="st6"
           width="17.2"
           height="17.2" />
        <rect
           id="Rectangle_15_2_"
           x="74.1"
           y="-220.5"
           class="st3"
           width="17.2"
           height="17.2" />
        <rect
           id="Rectangle_16_2_"
           x="73.2"
           y="-110.9"
           class="st4"
           width="17.2"
           height="17.2" />
        <rect
           id="Rectangle_17_2_"
           x="268.1"
           y="-27.8"
           class="st6"
           width="17.2"
           height="17.2" />
        <rect
           id="Rectangle_18_2_"
           x="197"
           y="-302.1"
           class="st2"
           width="17.2"
           height="17.2" />
        <g
           id="Group_42_2_"
           transform="translate(164.434 168.608)">
          <path
             id="Path_62_2_"
             class="st1"
             d="M0-302.9c4.8,0,4.1,6.7,7.9,6.7" />
          <path
             id="Path_63_2_"
             class="st1"
             d="M15.8-302.9c4.8,0,4.1,6.7,7.9,6.7" />
          <path
             id="Path_64_2_"
             class="st1"
             d="M15.7-302.9c-4.8,0-4.1,6.7-7.9,6.7" />
          <path
             id="Path_65_2_"
             class="st1"
             d="M31.5-302.9" />
          <path
             id="Path_66_2_"
             class="st1"
             d="M31.5-302.9c-4.8,0-4.1,6.7-7.9,6.7" />
        </g>
        <g
           id="Group_43_2_"
           transform="translate(209.324 292.327)">
          <path
             id="Path_67_2_"
             class="st1"
             d="M0-302.9c4.8,0,4.1,6.7,7.9,6.7" />
          <path
             id="Path_68_2_"
             class="st1"
             d="M15.8-302.9c4.8,0,4.1,6.7,7.9,6.7" />
          <path
             id="Path_69_2_"
             class="st1"
             d="M15.7-302.9c-4.8,0-4.1,6.7-7.9,6.7" />
          <path
             id="Path_70_2_"
             class="st1"
             d="M31.5-302.9" />
          <path
             id="Path_71_2_"
             class="st1"
             d="M31.5-302.9c-4.8,0-4.1,6.7-7.9,6.7" />
        </g>
        <g
           id="Group_44_2_"
           transform="translate(230.847 113.96)">
          <path
             id="Path_72_2_"
             class="st1"
             d="M0-302.9c4.8,0,4.1,6.7,7.9,6.7" />
          <path
             id="Path_73_2_"
             class="st1"
             d="M15.7-302.9c4.8,0,4.1,6.7,7.9,6.7" />
          <path
             id="Path_74_2_"
             class="st1"
             d="M15.7-302.9c-4.8,0-4.1,6.7-7.9,6.7" />
          <path
             id="Path_75_2_"
             class="st1"
             d="M31.5-302.9" />
          <path
             id="Path_76_2_"
             class="st1"
             d="M31.4-302.9c-4.8,0-4.1,6.7-7.9,6.7" />
        </g>
        <g
           id="Group_45_2_"
           transform="translate(11.656 105.936)">
          <path
             id="Path_77_2_"
             class="st1"
             d="M0-302.9c4.8,0,4.1,6.7,7.9,6.7" />
          <path
             id="Path_78_2_"
             class="st1"
             d="M15.8-302.9c4.8,0,4.1,6.7,7.9,6.7" />
          <path
             id="Path_79_2_"
             class="st1"
             d="M15.7-302.9c-4.8,0-4.1,6.7-7.9,6.7" />
          <path
             id="Path_80_2_"
             class="st1"
             d="M31.5-302.9" />
          <path
             id="Path_81_2_"
             class="st1"
             d="M31.5-302.9c-4.8,0-4.1,6.7-7.9,6.7" />
        </g>
        <g
           id="Group_46_2_"
           transform="translate(166.928)">
          <path
             id="Path_82_2_"
             class="st1"
             d="M0-271.4c0-4.8,6.7-4.1,6.7-7.9" />
          <path
             id="Path_83_2_"
             class="st1"
             d="M0-287.2c0-4.8,6.7-4.1,6.7-7.9" />
          <path
             id="Path_84_2_"
             class="st1"
             d="M0-287.2c0,4.8,6.7,4.1,6.7,7.9" />
          <path
             id="Path_85_2_"
             class="st1"
             d="M0.1-302.9" />
          <path
             id="Path_86_2_"
             class="st1"
             d="M0-302.9c0,4.8,6.7,4.1,6.7,7.9" />
        </g>
        <g
           id="Group_47_2_"
           transform="translate(118.622 82.461)">
          <path
             id="Path_87_2_"
             class="st1"
             d="M0-271.4c0-4.8,6.7-4.1,6.7-7.9" />
          <path
             id="Path_88_2_"
             class="st1"
             d="M0-287.2c0-4.8,6.7-4.1,6.7-7.9" />
          <path
             id="Path_89_2_"
             class="st1"
             d="M0-287.2c0,4.8,6.7,4.1,6.7,7.9" />
          <path
             id="Path_90_2_"
             class="st1"
             d="M0-302.9" />
          <path
             id="Path_91_2_"
             class="st1"
             d="M0-302.9c0,4.8,6.7,4.1,6.7,7.9" />
        </g>
        <g
           id="Group_48_2_"
           transform="translate(249.606 214.149)">
          <path
             id="Path_92_2_"
             class="st1"
             d="M0-271.4c0-4.8,6.7-4.1,6.7-7.9" />
          <path
             id="Path_93_2_"
             class="st1"
             d="M0-287.2c0-4.8,6.7-4.1,6.7-7.9" />
          <path
             id="Path_94_2_"
             class="st1"
             d="M0-287.2c0,4.8,6.7,4.1,6.7,7.9" />
          <path
             id="Path_95_2_"
             class="st1"
             d="M0.1-302.9" />
          <path
             id="Path_96_2_"
             class="st1"
             d="M0-302.9c0,4.8,6.7,4.1,6.7,7.9" />
        </g>
        <g
           id="Group_49_2_"
           transform="translate(87.069 226.564)">
          <path
             id="Path_97_2_"
             class="st1"
             d="M0-271.4c0-4.8,6.7-4.1,6.7-7.9" />
          <path
             id="Path_98_2_"
             class="st1"
             d="M0-287.2c0-4.8,6.7-4.1,6.7-7.9" />
          <path
             id="Path_99_2_"
             class="st1"
             d="M0-287.2c0,4.8,6.7,4.1,6.7,7.9" />
          <path
             id="Path_100_2_"
             class="st1"
             d="M0-302.9" />
          <path
             id="Path_101_2_"
             class="st1"
             d="M0-302.9c0,4.8,6.7,4.1,6.7,7.9" />
        </g>
        <line
           id="Line_17_2_"
           class="st2"
           x1="210.6"
           y1="-110"
           x2="191.2"
           y2="-110" />
        <line
           id="Line_18_2_"
           class="st4"
           x1="19.5"
           y1="-166.2"
           x2="0"
           y2="-166.2" />
        <line
           id="Line_19_2_"
           class="st2"
           x1="212.1"
           y1="-256.6"
           x2="192.6"
           y2="-256.6" />
        <line
           id="Line_20_2_"
           class="st2"
           x1="288.7"
           y1="-300.5"
           x2="269.3"
           y2="-300.5" />
        <line
           id="Line_21_2_"
           class="st3"
           x1="97"
           y1="-10.6"
           x2="77.5"
           y2="-10.6" />
        <line
           id="Line_22_2_"
           class="st6"
           x1="141.2"
           y1="-61.9"
           x2="127.5"
           y2="-48.2" />
        <line
           id="Line_23_2_"
           class="st2"
           x1="27.4"
           y1="-300.5"
           x2="13.7"
           y2="-286.7" />
        <line
           id="Line_24_2_"
           class="st6"
           x1="292.8"
           y1="-159.5"
           x2="279"
           y2="-145.7" />
        <path
           id="Path_102_2_"
           class="st3"
           d="M178.2-68.6C178.1-68.6,178.1-68.6,178.2-68.6c-1-1.6-3.1-2.1-4.7-1.1     c-1.6,1-2.1,3.1-1.1,4.7c1,1.6,3.1,2.1,4.7,1.1C178.6-65,179.1-67,178.2-68.6z" />
        <path
           id="Path_103_2_"
           class="st2"
           d="M151.4-162.1C151.4-162.1,151.4-162.1,151.4-162.1c-1-1.6-3.1-2.1-4.7-1.1     c-1.6,1-2.1,3.1-1.1,4.7c1,1.6,3.1,2.1,4.7,1.1C151.9-158.4,152.3-160.5,151.4-162.1z" />
        <path
           id="Path_104_2_"
           class="st6"
           d="M28.9-133.3C28.9-133.3,28.9-133.3,28.9-133.3c-1-1.6-3.1-2.1-4.7-1.1     c-1.6,1-2.1,3.1-1.1,4.7c1,1.6,3.1,2.1,4.7,1.1C29.4-129.7,29.9-131.7,28.9-133.3z" />
        <path
           id="Path_105_2_"
           class="st3"
           d="M62.7-235.6c1.6-1,2-3.1,1-4.6c0,0,0,0,0,0c-1-1.6-3.1-2.1-4.7-1.1s-2.1,3.1-1.1,4.7     C58.9-235.1,61-234.6,62.7-235.6C62.6-235.6,62.6-235.6,62.7-235.6z" />
        <path
           id="Path_106_2_"
           class="st3"
           d="M250.6-242C250.6-242,250.6-242,250.6-242c-1-1.6-3.1-2.1-4.7-1.1c-1.6,1-2.1,3.1-1.1,4.7     c1,1.6,3.1,2.1,4.7,1.1C251.1-238.3,251.6-240.4,250.6-242z" />
        <path
           id="Path_107_2_"
           class="st3"
           d="M298.7-120.9C298.7-120.9,298.7-120.9,298.7-120.9c-1-1.6-3.1-2.1-4.7-1.1     c-1.6,1-2.1,3.1-1.1,4.7c1,1.6,3.1,2.1,4.7,1.1C299.2-117.2,299.6-119.3,298.7-120.9z" />
      </g>
    </g>
  </pattern>
  <pattern
     id="SVGID_1_"
     xlink:href="#New_Pattern_Swatch_1"
     patternTransform="translate(3,-2.1963275e-5)" />
  <rect
     id="tiles_bg"
     class="st7"
     width="210mm"
     height="297mm"
     x="0"
     y="2.6281503e-05"
     style="opacity:1;fill:url(#New_Pattern_Swatch_1);fill-opacity:1.0;stroke-width:1.68183577" />
</svg>
