<svg version="1.1" id="logo" xmlns="http://www.w3.org/2000/svg" xmlns:xlink="http://www.w3.org/1999/xlink" x="0px" y="0px" viewBox="0 0 375 200" style="enable-background:new 0 0 375 200;" xml:space="preserve">
<style type="text/css">
	.st0{enable-background:new    ;}
	.fill-primary{fill:#16397B ;}
</style>
<g class="st0">
	<path class="fill-primary" d="M52.4,177.8c0,0.5-0.1,1-0.3,1.5c-0.2,0.5-0.5,0.9-0.8,1.2c-0.4,0.4-0.9,0.7-1.5,0.8c-0.6,0.2-1.2,0.3-2,0.3
		c-0.5,0-1.1,0-1.5-0.1c-0.5,0-0.9-0.1-1.3-0.2v-2.5h0.3c0.2,0.1,0.5,0.2,0.8,0.3s0.6,0.1,1,0.1c0.5,0,1-0.1,1.3-0.2
		c0.3-0.2,0.5-0.4,0.6-0.6c0.1-0.3,0.2-0.6,0.2-0.9c0-0.4,0-0.8,0-1.2v-5h-2.8V169h5.9V177.8z"></path>
	<path class="fill-primary" d="M59.4,181.7c-1.8,0-3.1-0.4-4-1.3c-0.9-0.8-1.4-2-1.4-3.6c0-1.5,0.4-2.7,1.3-3.6s2.1-1.4,3.7-1.4c1.4,0,2.5,0.4,3.2,1.2
		c0.7,0.8,1.1,1.9,1.1,3.3v1h-6.4c0,0.4,0.1,0.8,0.3,1.1c0.2,0.3,0.4,0.5,0.6,0.7c0.2,0.2,0.5,0.3,0.9,0.4c0.3,0.1,0.7,0.1,1.1,0.1
		c0.3,0,0.7,0,1-0.1c0.3-0.1,0.6-0.2,0.9-0.3c0.2-0.1,0.5-0.2,0.7-0.3c0.2-0.1,0.4-0.2,0.5-0.3h0.3v2.4c-0.2,0.1-0.5,0.2-0.7,0.3
		c-0.2,0.1-0.5,0.2-0.8,0.2c-0.3,0.1-0.6,0.1-1,0.2C60.3,181.6,59.9,181.7,59.4,181.7z M60.4,175.5c0-0.6-0.2-1.1-0.4-1.4
		c-0.3-0.3-0.7-0.5-1.2-0.5c-0.6,0-1,0.2-1.3,0.5c-0.3,0.3-0.5,0.8-0.5,1.4H60.4z"></path>
	<path class="fill-primary" d="M73.4,181.4h-2.9v-1c-0.5,0.4-1,0.7-1.4,1s-0.9,0.3-1.5,0.3c-0.9,0-1.6-0.3-2.2-0.9c-0.5-0.6-0.8-1.5-0.8-2.6v-6.1h2.9v4.6
		c0,0.5,0,0.9,0,1.2c0,0.3,0.1,0.6,0.2,0.8c0.1,0.2,0.2,0.3,0.4,0.4c0.2,0.1,0.4,0.1,0.8,0.1c0.2,0,0.4,0,0.7-0.1
		c0.3-0.1,0.5-0.2,0.8-0.4v-6.6h2.9V181.4z"></path>
	<path class="fill-primary" d="M84.1,180.3c0,0.9-0.1,1.6-0.4,2.2s-0.6,1.1-1,1.4c-0.4,0.3-0.9,0.6-1.6,0.7s-1.3,0.2-2,0.2c-0.6,0-1.2,0-1.8-0.1
		c-0.6-0.1-1-0.2-1.4-0.3v-2.3h0.3c0.1,0.1,0.3,0.1,0.5,0.2c0.2,0.1,0.4,0.1,0.6,0.2c0.2,0.1,0.5,0.1,0.7,0.1s0.5,0.1,0.7,0.1
		c0.5,0,0.9-0.1,1.2-0.2c0.3-0.1,0.6-0.2,0.7-0.4c0.2-0.2,0.3-0.4,0.3-0.7s0.1-0.6,0.1-1v-0.2c-0.3,0.3-0.7,0.5-1.1,0.7
		c-0.4,0.2-0.9,0.3-1.3,0.3c-1.2,0-2.1-0.4-2.8-1.2c-0.7-0.8-1-2-1-3.6c0-0.7,0.1-1.4,0.3-2c0.2-0.6,0.5-1.1,0.8-1.5
		c0.3-0.4,0.8-0.7,1.2-0.9s1-0.3,1.5-0.3c0.5,0,0.9,0.1,1.3,0.2s0.7,0.3,1,0.5l0.1-0.4h2.8V180.3z M81.2,178.5v-4.2
		c-0.1-0.1-0.3-0.1-0.5-0.2c-0.2,0-0.4-0.1-0.6-0.1c-0.7,0-1.2,0.2-1.6,0.7c-0.4,0.5-0.5,1.1-0.5,1.9c0,0.4,0,0.7,0.1,1
		c0.1,0.3,0.2,0.5,0.3,0.7c0.1,0.2,0.3,0.4,0.5,0.5c0.2,0.1,0.5,0.2,0.9,0.2c0.3,0,0.5,0,0.8-0.1C80.7,178.8,80.9,178.6,81.2,178.5z
		"></path>
	<path class="fill-primary" d="M94.8,181.4h-2.9v-1c-0.2,0.2-0.4,0.3-0.6,0.5c-0.2,0.2-0.5,0.3-0.6,0.4c-0.2,0.1-0.5,0.2-0.7,0.2
		c-0.2,0.1-0.5,0.1-0.8,0.1c-1.1,0-1.9-0.4-2.5-1.3s-0.9-2.1-0.9-3.5c0-0.8,0.1-1.5,0.3-2.1s0.5-1.1,0.9-1.6c0.3-0.4,0.7-0.7,1.2-1
		s1-0.4,1.5-0.4c0.5,0,0.9,0.1,1.2,0.2c0.3,0.1,0.7,0.3,1.1,0.5v-4h2.9V181.4z M91.9,178.8v-4.6c-0.1-0.1-0.3-0.1-0.6-0.2
		s-0.4-0.1-0.6-0.1c-0.7,0-1.2,0.2-1.6,0.7c-0.4,0.5-0.5,1.2-0.5,2c0,0.9,0.1,1.6,0.4,2c0.3,0.4,0.7,0.6,1.4,0.6
		c0.3,0,0.5,0,0.8-0.1S91.6,179,91.9,178.8z"></path>
	<path class="fill-primary" d="M100.5,178.1l-2.9,6.3h-1.8l1.6-6.3H100.5z"></path>
	<path class="fill-primary" d="M112.8,181.6c-1.9,0-3.3-0.6-4.4-1.7c-1.1-1.1-1.6-2.7-1.6-4.7c0-2,0.5-3.5,1.6-4.7c1.1-1.2,2.6-1.7,4.4-1.7
		c0.5,0,0.9,0,1.3,0.1s0.8,0.1,1.1,0.2c0.3,0.1,0.6,0.2,0.9,0.3c0.3,0.1,0.6,0.3,0.8,0.4v2.9h-0.3c-0.1-0.1-0.3-0.3-0.6-0.5
		s-0.5-0.4-0.8-0.5s-0.6-0.3-1-0.5c-0.3-0.1-0.7-0.2-1.1-0.2c-0.4,0-0.9,0.1-1.2,0.2c-0.4,0.1-0.7,0.4-1.1,0.7
		c-0.3,0.3-0.6,0.7-0.8,1.3c-0.2,0.5-0.3,1.2-0.3,1.9c0,0.8,0.1,1.4,0.3,1.9c0.2,0.5,0.5,0.9,0.8,1.3c0.3,0.3,0.7,0.5,1.1,0.7
		c0.4,0.1,0.8,0.2,1.2,0.2c0.4,0,0.8-0.1,1.2-0.2s0.7-0.3,0.9-0.5c0.3-0.2,0.5-0.3,0.7-0.5s0.4-0.3,0.5-0.5h0.3v2.9
		c-0.2,0.1-0.5,0.2-0.8,0.4s-0.6,0.3-0.9,0.3c-0.4,0.1-0.8,0.2-1.1,0.3S113.4,181.6,112.8,181.6z"></path>
	<path class="fill-primary" d="M127.3,181.4h-2.9v-1c-0.5,0.4-1,0.7-1.4,1s-0.9,0.3-1.5,0.3c-0.9,0-1.6-0.3-2.2-0.9c-0.5-0.6-0.8-1.5-0.8-2.6v-6.1h2.9
		v4.6c0,0.5,0,0.9,0,1.2c0,0.3,0.1,0.6,0.2,0.8c0.1,0.2,0.2,0.3,0.4,0.4c0.2,0.1,0.4,0.1,0.8,0.1c0.2,0,0.4,0,0.7-0.1
		c0.3-0.1,0.5-0.2,0.8-0.4v-6.6h2.9V181.4z"></path>
	<path class="fill-primary" d="M132.4,181.4h-2.9v-12.9h2.9V181.4z"></path>
	<path class="fill-primary" d="M138.2,181.6c-1.2,0-2-0.2-2.6-0.7c-0.5-0.5-0.8-1.3-0.8-2.4v-4.4h-1.1v-2h1.1v-2.7h2.9v2.7h2.8v2h-2.8v3.3
		c0,0.3,0,0.6,0,0.9s0,0.5,0.1,0.7c0.1,0.2,0.2,0.3,0.4,0.5c0.2,0.1,0.5,0.2,0.9,0.2c0.2,0,0.4,0,0.6-0.1c0.3-0.1,0.4-0.1,0.5-0.2
		h0.2v2c-0.3,0.1-0.7,0.1-1,0.2S138.7,181.6,138.2,181.6z"></path>
	<path class="fill-primary" d="M150.4,181.4h-2.9v-1c-0.5,0.4-1,0.7-1.4,1s-0.9,0.3-1.5,0.3c-0.9,0-1.6-0.3-2.2-0.9c-0.5-0.6-0.8-1.5-0.8-2.6v-6.1h2.9
		v4.6c0,0.5,0,0.9,0,1.2c0,0.3,0.1,0.6,0.2,0.8c0.1,0.2,0.2,0.3,0.4,0.4c0.2,0.1,0.4,0.1,0.8,0.1c0.2,0,0.4,0,0.7-0.1
		c0.3-0.1,0.5-0.2,0.8-0.4v-6.6h2.9V181.4z"></path>
	<path class="fill-primary" d="M161.3,181.4h-2.9v-1c-0.5,0.4-1,0.7-1.4,1s-0.9,0.3-1.5,0.3c-0.9,0-1.6-0.3-2.2-0.9c-0.5-0.6-0.8-1.5-0.8-2.6v-6.1h2.9
		v4.6c0,0.5,0,0.9,0,1.2c0,0.3,0.1,0.6,0.2,0.8c0.1,0.2,0.2,0.3,0.4,0.4c0.2,0.1,0.4,0.1,0.8,0.1c0.2,0,0.4,0,0.7-0.1
		c0.3-0.1,0.5-0.2,0.8-0.4v-6.6h2.9V181.4z"></path>
	<path class="fill-primary" d="M169.7,174.8h-0.2c-0.1,0-0.3-0.1-0.5-0.1s-0.4,0-0.7,0c-0.3,0-0.6,0-1,0.1c-0.3,0.1-0.7,0.2-1,0.3v6.2h-2.9v-9.3h2.9v1.3
		c0.1-0.1,0.3-0.3,0.6-0.5c0.2-0.2,0.4-0.3,0.6-0.4c0.2-0.1,0.5-0.2,0.7-0.3c0.3-0.1,0.5-0.1,0.8-0.1c0.1,0,0.2,0,0.3,0s0.2,0,0.3,0
		V174.8z"></path>
	<path class="fill-primary" d="M180.6,181.7c-1.8,0-3.1-0.4-4-1.3c-0.9-0.8-1.4-2-1.4-3.6c0-1.5,0.4-2.7,1.3-3.6s2.1-1.4,3.7-1.4c1.4,0,2.5,0.4,3.2,1.2
		c0.7,0.8,1.1,1.9,1.1,3.3v1h-6.4c0,0.4,0.1,0.8,0.3,1.1c0.2,0.3,0.4,0.5,0.6,0.7c0.2,0.2,0.5,0.3,0.9,0.4c0.3,0.1,0.7,0.1,1.1,0.1
		c0.3,0,0.7,0,1-0.1c0.3-0.1,0.6-0.2,0.9-0.3c0.2-0.1,0.5-0.2,0.7-0.3c0.2-0.1,0.4-0.2,0.5-0.3h0.3v2.4c-0.2,0.1-0.5,0.2-0.7,0.3
		c-0.2,0.1-0.5,0.2-0.8,0.2c-0.3,0.1-0.6,0.1-1,0.2C181.5,181.6,181.1,181.7,180.6,181.7z M181.6,175.5c0-0.6-0.2-1.1-0.4-1.4
		c-0.3-0.3-0.7-0.5-1.2-0.5c-0.6,0-1,0.2-1.3,0.5c-0.3,0.3-0.5,0.8-0.5,1.4H181.6z"></path>
	<path class="fill-primary" d="M194.7,181.4h-2.9v-4.6c0-0.4,0-0.8,0-1.1c0-0.4-0.1-0.6-0.2-0.8c-0.1-0.2-0.2-0.4-0.4-0.5c-0.2-0.1-0.4-0.1-0.8-0.1
		c-0.2,0-0.5,0-0.7,0.1c-0.2,0.1-0.5,0.2-0.8,0.4v6.6h-2.9v-9.3h2.9v1c0.5-0.4,0.9-0.7,1.4-0.9c0.5-0.2,1-0.3,1.5-0.3
		c1,0,1.7,0.3,2.2,0.9s0.8,1.5,0.8,2.6V181.4z"></path>
	<path class="fill-primary" d="M217.9,169l-3.1,12.4h-3.4l-2-7.6l-1.9,7.6h-3.4l-3.1-12.4h3.2l1.7,8.3l2.1-8.3h3.1l2,8.3l1.8-8.3H217.9z"></path>
	<path class="fill-primary" d="M224,181.7c-1.8,0-3.1-0.4-4-1.3c-0.9-0.8-1.4-2-1.4-3.6c0-1.5,0.4-2.7,1.3-3.6c0.9-0.9,2.1-1.4,3.7-1.4
		c1.4,0,2.5,0.4,3.2,1.2c0.7,0.8,1.1,1.9,1.1,3.3v1h-6.4c0,0.4,0.1,0.8,0.3,1.1c0.2,0.3,0.4,0.5,0.6,0.7c0.2,0.2,0.5,0.3,0.9,0.4
		c0.3,0.1,0.7,0.1,1.1,0.1c0.3,0,0.7,0,1-0.1c0.3-0.1,0.6-0.2,0.9-0.3c0.2-0.1,0.5-0.2,0.7-0.3c0.2-0.1,0.4-0.2,0.5-0.3h0.3v2.4
		c-0.2,0.1-0.5,0.2-0.7,0.3c-0.2,0.1-0.5,0.2-0.8,0.2c-0.3,0.1-0.6,0.1-1,0.2C224.9,181.6,224.5,181.7,224,181.7z M225,175.5
		c0-0.6-0.2-1.1-0.4-1.4c-0.3-0.3-0.7-0.5-1.2-0.5c-0.6,0-1,0.2-1.3,0.5c-0.3,0.3-0.5,0.8-0.5,1.4H225z"></path>
	<path class="fill-primary" d="M232.9,181.6c-1.2,0-2-0.2-2.6-0.7c-0.5-0.5-0.8-1.3-0.8-2.4v-4.4h-1.1v-2h1.1v-2.7h2.9v2.7h2.8v2h-2.8v3.3
		c0,0.3,0,0.6,0,0.9c0,0.2,0,0.5,0.1,0.7c0.1,0.2,0.2,0.3,0.4,0.5c0.2,0.1,0.5,0.2,0.9,0.2c0.2,0,0.4,0,0.6-0.1
		c0.3-0.1,0.4-0.1,0.5-0.2h0.2v2c-0.3,0.1-0.7,0.1-1,0.2S233.4,181.6,232.9,181.6z"></path>
	<path class="fill-primary" d="M241.2,181.7c-1.8,0-3.1-0.4-4-1.3c-0.9-0.8-1.4-2-1.4-3.6c0-1.5,0.4-2.7,1.3-3.6s2.1-1.4,3.7-1.4c1.4,0,2.5,0.4,3.2,1.2
		c0.7,0.8,1.1,1.9,1.1,3.3v1h-6.4c0,0.4,0.1,0.8,0.3,1.1c0.2,0.3,0.4,0.5,0.6,0.7c0.2,0.2,0.5,0.3,0.9,0.4c0.3,0.1,0.7,0.1,1.1,0.1
		c0.3,0,0.7,0,1-0.1c0.3-0.1,0.6-0.2,0.9-0.3c0.2-0.1,0.5-0.2,0.7-0.3c0.2-0.1,0.4-0.2,0.5-0.3h0.3v2.4c-0.2,0.1-0.5,0.2-0.7,0.3
		c-0.2,0.1-0.5,0.2-0.8,0.2c-0.3,0.1-0.6,0.1-1,0.2C242.1,181.6,241.7,181.7,241.2,181.7z M242.2,175.5c0-0.6-0.2-1.1-0.4-1.4
		c-0.3-0.3-0.7-0.5-1.2-0.5c-0.6,0-1,0.2-1.3,0.5c-0.3,0.3-0.5,0.8-0.5,1.4H242.2z"></path>
	<path class="fill-primary" d="M255.2,181.4h-2.9v-4.6c0-0.4,0-0.8,0-1.1c0-0.4-0.1-0.6-0.2-0.8c-0.1-0.2-0.2-0.4-0.4-0.5c-0.2-0.1-0.4-0.1-0.8-0.1
		c-0.2,0-0.5,0-0.7,0.1c-0.2,0.1-0.5,0.2-0.8,0.4v6.6h-2.9v-9.3h2.9v1c0.5-0.4,0.9-0.7,1.4-0.9c0.5-0.2,1-0.3,1.5-0.3
		c1,0,1.7,0.3,2.2,0.9c0.5,0.6,0.8,1.5,0.8,2.6V181.4z"></path>
	<path class="fill-primary" d="M260.2,181.7c-0.7,0-1.3-0.1-1.9-0.2s-1.1-0.3-1.5-0.5v-2.5h0.2c0.1,0.1,0.3,0.2,0.5,0.3c0.2,0.1,0.4,0.3,0.7,0.4
		c0.3,0.1,0.6,0.2,0.9,0.3c0.3,0.1,0.7,0.1,1.1,0.1c0.4,0,0.8-0.1,1.1-0.2s0.5-0.3,0.5-0.6c0-0.2-0.1-0.4-0.2-0.5s-0.4-0.2-0.8-0.3
		c-0.2-0.1-0.5-0.1-0.8-0.2s-0.6-0.1-0.9-0.2c-0.7-0.2-1.3-0.6-1.6-1c-0.4-0.4-0.6-1-0.6-1.8c0-0.4,0.1-0.8,0.3-1.2
		c0.2-0.4,0.5-0.7,0.8-1c0.4-0.3,0.8-0.5,1.4-0.7s1.2-0.2,1.8-0.2c0.7,0,1.3,0.1,1.8,0.2s1,0.3,1.4,0.5v2.4h-0.2
		c-0.1-0.1-0.3-0.2-0.5-0.3s-0.4-0.2-0.6-0.3c-0.2-0.1-0.5-0.2-0.8-0.3c-0.3-0.1-0.6-0.1-0.9-0.1c-0.4,0-0.8,0.1-1.1,0.2
		s-0.4,0.3-0.4,0.6c0,0.2,0.1,0.4,0.2,0.5c0.1,0.1,0.5,0.2,0.9,0.4c0.2,0.1,0.5,0.1,0.9,0.2c0.3,0.1,0.6,0.1,0.9,0.2
		c0.7,0.2,1.2,0.5,1.5,1c0.3,0.4,0.5,1,0.5,1.7c0,0.4-0.1,0.9-0.3,1.2c-0.2,0.4-0.5,0.7-0.9,1c-0.4,0.3-0.9,0.5-1.4,0.7
		S261,181.7,260.2,181.7z"></path>
	<path class="fill-primary" d="M270.7,181.7c-0.8,0-1.5-0.1-2.1-0.3c-0.6-0.2-1.2-0.5-1.7-0.9c-0.5-0.4-0.8-0.9-1.1-1.5s-0.4-1.3-0.4-2.2
		c0-0.9,0.1-1.6,0.4-2.3c0.3-0.6,0.7-1.1,1.1-1.5c0.5-0.4,1-0.7,1.6-0.9c0.6-0.2,1.3-0.3,2-0.3c0.5,0,1,0.1,1.5,0.2s1,0.3,1.6,0.6
		v2.5h-0.4c-0.1-0.1-0.3-0.2-0.4-0.4c-0.2-0.1-0.4-0.3-0.6-0.4c-0.2-0.1-0.4-0.2-0.7-0.3s-0.6-0.1-0.9-0.1c-0.7,0-1.3,0.3-1.7,0.8
		c-0.4,0.5-0.6,1.2-0.6,2.1c0,0.9,0.2,1.6,0.7,2.1c0.4,0.5,1,0.7,1.7,0.7c0.4,0,0.7,0,1-0.1c0.3-0.1,0.5-0.2,0.7-0.3
		c0.2-0.1,0.4-0.2,0.5-0.4c0.1-0.1,0.3-0.2,0.4-0.3h0.4v2.5c-0.2,0.1-0.4,0.2-0.6,0.2c-0.2,0.1-0.4,0.2-0.7,0.2
		c-0.3,0.1-0.5,0.1-0.8,0.2C271.4,181.6,271.1,181.7,270.7,181.7z"></path>
	<path class="fill-primary" d="M283.8,181.4h-2.9v-4.6c0-0.4,0-0.8,0-1.1c0-0.4-0.1-0.6-0.2-0.8c-0.1-0.2-0.2-0.4-0.4-0.5c-0.2-0.1-0.4-0.1-0.8-0.1
		c-0.2,0-0.5,0-0.7,0.1c-0.2,0.1-0.5,0.2-0.8,0.4v6.6h-2.9v-12.9h2.9v4.6c0.5-0.4,0.9-0.7,1.4-0.9c0.5-0.2,1-0.3,1.5-0.3
		c1,0,1.7,0.3,2.2,0.9s0.8,1.5,0.8,2.6V181.4z"></path>
	<path class="fill-primary" d="M291.1,180.4c-0.2,0.2-0.4,0.3-0.5,0.4c-0.2,0.1-0.4,0.3-0.6,0.4c-0.3,0.1-0.5,0.2-0.8,0.3s-0.6,0.1-1,0.1
		c-0.8,0-1.5-0.3-2.1-0.8s-0.8-1.3-0.8-2.1c0-0.7,0.1-1.3,0.4-1.7s0.7-0.8,1.2-1c0.5-0.3,1.2-0.4,1.9-0.5s1.5-0.2,2.4-0.2v0
		c0-0.5-0.2-0.9-0.6-1.1c-0.4-0.2-0.9-0.3-1.7-0.3c-0.3,0-0.7,0.1-1.2,0.2c-0.5,0.1-0.9,0.3-1.3,0.5h-0.2v-2.2
		c0.3-0.1,0.8-0.2,1.4-0.3s1.3-0.2,1.9-0.2c1.6,0,2.8,0.3,3.5,0.8c0.7,0.5,1.1,1.3,1.1,2.4v6.3h-2.9V180.4z M291.1,179V177
		c-0.5,0.1-0.9,0.1-1.2,0.1c-0.3,0-0.6,0.1-0.9,0.2c-0.3,0.1-0.5,0.2-0.6,0.4c-0.1,0.2-0.2,0.4-0.2,0.7c0,0.4,0.1,0.7,0.4,0.9
		s0.6,0.2,1,0.2c0.3,0,0.5-0.1,0.8-0.2S290.9,179.2,291.1,179z"></path>
	<path class="fill-primary" d="M305.3,176.6c0,1.5-0.4,2.7-1.1,3.6c-0.8,0.9-1.7,1.4-2.8,1.4c-0.5,0-0.9-0.1-1.2-0.2c-0.3-0.1-0.7-0.3-1.1-0.5v3.9h-2.9
		v-12.7h2.9v1c0.4-0.4,0.9-0.7,1.3-0.9c0.4-0.2,1-0.3,1.5-0.3c1.1,0,1.9,0.4,2.5,1.3C305,174,305.3,175.1,305.3,176.6z M302.3,176.7
		c0-0.9-0.1-1.6-0.4-2s-0.7-0.6-1.3-0.6c-0.3,0-0.5,0-0.8,0.1c-0.3,0.1-0.5,0.2-0.8,0.4v4.7c0.2,0.1,0.3,0.1,0.5,0.1s0.4,0,0.7,0
		c0.7,0,1.2-0.2,1.6-0.7C302.2,178.3,302.3,177.6,302.3,176.7z"></path>
	<path class="fill-primary" d="M320.6,172.1l-3.3,9.3h-3.2l-3.3-9.3h3.1l1.9,6.2l1.9-6.2H320.6z"></path>
	<path class="fill-primary" d="M329.1,181.4H321v-1.9l4.4-5.2h-4.2v-2.2h7.9v1.9l-4.5,5.2h4.5V181.4z"></path>
	<path class="fill-primary" d="M344.5,172.1l-2.7,9.3h-3.1l-1.6-6l-1.6,6h-3.1l-2.7-9.3h3.1l1.4,6.2l1.8-6.2h2.6l1.7,6.2l1.4-6.2H344.5z"></path>
</g>
<g>
	<path class="fill-primary" d="M299.9,100.5c0.5-1.7,0.9-3.4,1.5-5c2.6-6.6,5.2-13.1,7.8-19.7c0.1-0.3,0.3-0.6,0.5-0.8c0.6-0.9,1-0.9,1.5-0.3
		c2.8-0.1,5.3-0.3,7.8-0.3c1.6,0,3,0.5,3.7,2.1c2.1-1,4.4-0.8,4.9,2.7c0.9,5.8,1.6,11.6,2.5,17.4c0.1,0.5,0.2,0.9,0.6,1.5
		c0.3-0.4,0.8-0.8,1-1.3c0.7-1.9,1.4-3.8,2-5.8c3.8-12,7.7-23.9,11.5-35.9c0.5-1.5,0.9-3.1,1.3-4.6c0.1-0.4,0.2-0.8,0.4-1.1
		c0.2-0.2,0.6-0.4,0.9-0.4c0.3,0.1,0.6,0.5,0.6,0.7c0,0.7-0.2,1.3-0.3,2c-0.1,0.8-0.3,1.6-0.4,2.4c0.1,0.1,0.3,0.1,0.4,0.2
		c0.3-0.3,0.7-0.6,0.9-0.9c0.4-0.8,0.7-1.6,1.1-2.4c0.5-1.1,1.4-1.7,2.6-1.5s2.4,0.5,3.5,0.9c1.7,0.7,2.4,2.1,1.9,3.9
		c-1.1,3.7-2.4,7.4-3.5,11.1c-0.7,2.3-1.4,4.7-1.9,7c-0.2,0.9-0.2,1.9-0.1,2.8c0.1,0.7,0.6,0.8,1.1,0.3c0.2-0.3,0.4-0.6,0.5-0.9
		c1.6-5.4,3.2-10.8,4.7-16.2c0.5-1.7,0.4-3.5,0.7-5.2c0.2-1.6,1.2-2,2.6-1.1c1.5,0.9,1.9,2,1.5,3.5c-3.4,11.6-6.8,23.1-10.1,34.7
		c-2.8,9.5-5.5,19-8.2,28.5c-0.7,2.4-1,4.8-1.6,7.2c-0.3,1-0.7,2-1.3,2.8c-1,1.6-2.6,2.2-4.4,2c-0.9-0.1-1.5,0-2,0.8
		c-0.6,1.1-1.7,1.4-2.8,1.4c-1.4,0-2.7-0.1-4.1-0.2c-1.9-0.3-3.2-1.5-4.2-3.1c-1.9-3.3-2.9-6.9-3.7-10.6c-0.6-2.9-1.1-5.8-1.7-8.7
		c-0.2-1-0.6-2.1-1.2-3c-0.8-1.4-2.1-1.4-3.1-0.1c-0.4,0.6-0.8,1.3-1,2c-1.6,4.2-3.2,8.5-4.9,12.7c-1.5,3.8-3.3,7.5-6.6,10.1
		c-1.9,1.6-4.1,2.5-6.6,2.1c-1.1-0.2-1.9-0.7-2.4-1.8c-0.5-1.1-1.2-1.6-2.6-1.4c-1.2,0.3-1.8-0.6-2-1.6c-0.5-2.5-1-4.9-1.3-7.4
		c-1.3-10.7-0.8-21.4-0.9-32.1c-0.1-9.9-0.1-19.8-0.1-29.7c0-2,0.2-4,1.2-5.8c0.5-0.8,1.2-1.8,2.2-1.5c0.7,0.2,1.2,1.1,1.7,1.7
		c0.2,0.3,0.3,0.7,0.4,1c0.8,2.1,1.3,2.5,3.5,2.4c1.7,0,2.7,0.6,3.2,2.1c0.4,1,0.7,2.1,0.7,3.1c0,6.4-0.1,12.7-0.1,19.1
		c0,4.8,0.1,9.7,0.1,14.5c0,1.1-0.1,2.1-0.1,3.2C299.7,100.5,299.8,100.5,299.9,100.5z"></path>
	<path class="fill-primary" d="M266.5,111.9c0.5-0.4,1.1-0.7,1.5-1.1c1.4-1.6,2.7-3.2,4-4.8c0.3-0.3,0.5-0.7,0.7-1c1.5-2,3.5-1.9,4.9,0.2s1.4,4.3,0,6.3
		c-1.3,1.8-2.9,3.4-4.5,4.9s-3.5,2.7-5.2,4.1c-0.7,0.6-1.9,1.3-1.1,2.4c0.7,1.1,1.9,0.5,2.8,0.1c2.6-1.3,4.9-3.1,6.9-5.3
		c0.9-0.9,1.8-1.7,2.7-2.6c0.1,0.1,0.3,0.2,0.4,0.2c-0.1,0.6,0,1.2-0.3,1.6c-0.6,1-1.1,2.2-1.9,3c-4.1,4-8.5,7.6-13.7,10.1
		c-7.3,3.5-14.5,3.2-21.8,0.3c-0.2-0.1-0.4-0.2-0.7-0.3c-0.4-0.1-0.8,0-1.3-0.1c0,0.4-0.1,0.8,0,1.1c0.5,1.1-0.1,1.5-1,1.6
		c-2.6,0.5-4.5-0.9-5.9-2.8c-2.1-2.7-3.2-5.8-4.4-9c-2.6-7.4-4.3-14.9-3.8-22.8c1-15.4,7.8-27.6,20.5-36.3c7.9-5.4,16.8-6,25.8-3.5
		c2.1,0.6,4,1.5,5.9,2.5s2.5,2.6,2.1,4.8c-0.2,0.7,0.1,1.6,0.2,2.3c0,0.2,0.1,0.4,0.2,0.6c0.4,1.1,0.8,2.4,0,3.4
		c-0.9,1.1-2.2,0.6-3.4,0.3c-3.1-0.8-6.1-1.8-9.2-2.5c-7.6-1.8-13.9,0.7-19.1,6.3c-4.8,5.1-7.4,11.4-9.4,18c-1,3.4-1.8,6.9-1.5,10.5
		s1.5,6.9,3.9,9.7c2.8,3.3,6.4,3.4,10.3,2.4c7.6-1.8,13.2-6.3,17.2-12.8c0.3-0.6,0.9-1,1.4-1.5c0.2-0.1,0.6-0.2,0.7-0.1
		c0.2,0.2,0.3,0.6,0.2,0.8c-0.3,0.7-0.6,1.5-1,2.1c-0.9,1.3-1.9,2.6-2.7,3.9c-0.4,0.7-0.7,1.5-1,2.2
		C266.2,111.7,266.4,111.8,266.5,111.9z"></path>
	<path class="fill-primary" d="M192.1,141.2c-7.2,0-12.1-3.2-16.2-8.3c-1.5-1.9-2.8-3.9-3.3-6.3c-0.2-0.9-0.4-1.8,0.8-2.3c0.3-0.1,0.4-1.2,0.4-1.8
		c-0.3-3-0.8-6-0.9-9c-0.1-4.9,1.9-7.6,6.6-9.2c2.1-0.7,3.4,0,3.9,2.2c0.2,1,0.4,2.1,0.8,3c0.2,0.5,1,1,1.5,1c0.4,0,1.1-0.7,1.3-1.2
		c0.3-0.9,0.3-2,0.6-2.9c0.2-0.7,0.6-1.5,1.2-1.7c0.9-0.3,1.6,0.5,1.8,1.3c0.3,1.2,0.5,2.4,0.3,3.6c-0.5,3.6-1.1,7.2-0.6,10.8
		c0.1,0.5,0.2,1,0.4,1.5c0.4,1.1,1.2,1.8,2.4,1.9s1.8-0.8,2.2-1.7c0.6-1.3,1-2.7,1.5-4c0.4-1.1,1.1-1.9,2.5-1.8
		c0.6,0,1.4-0.7,1.7-1.2c0.7-1.8,1.5-3.7,1.8-5.7c1.5-9.8,2.9-19.7,4.4-29.5c0.7-4.7,1.4-9.3,2-14c0.1-0.7,0.1-1.5,0.1-2.3
		c0.2-1.9,1.1-3.3,2.9-3.6c2.5-0.5,4.6-1.6,6.4-3.4c0.1-0.1,0.1-0.1,0.2-0.1c2.4-1.8,4.3-1.2,4.7,1.8c0.2,1.8-0.1,3.6-0.4,5.4
		c-0.9,5.7-1.9,11.3-2.8,17c-1.6,9.5-3.1,19-4.8,28.5c-0.8,4.7-1.9,9.4-3.2,14c-1.1,4.1-3.2,7.8-6.6,10.6c-0.7,0.5-1.2,1.3-1.7,2
		c-2.2,3.3-5.5,4.5-9.1,5.1C193.9,141.1,192.8,141.2,192.1,141.2z"></path>
	<path class="fill-primary" d="M302.3,80.3c-0.2-0.7-0.5-1.3-0.5-2c-0.1-5.3-0.1-10.5-0.1-15.8c0-0.6,0.6-1.2,0.9-1.8c0.4,0.6,1.1,1.1,1.2,1.7
		c0.3,2.7,0.7,5.4,0.6,8.1s-0.5,5.4-0.9,8.1c-0.1,0.6-0.4,1.2-0.7,1.8C302.6,80.3,302.4,80.3,302.3,80.3z"></path>
	<path class="fill-primary" d="M253.8,114.7c2-3,4.1-6,6.2-9.1c0.5-0.8,1.2-1.5,2.3-0.8c1,0.6,1.5,1.7,0.9,2.8c-0.4,0.8-0.9,1.6-1.6,2.1
		c-2.4,1.7-5,3.3-7.4,4.9C254,114.7,253.8,114.7,253.8,114.7z"></path>
	<path class="fill-primary" d="M277.6,102c0-2.2,1.6-3.4,3.5-2.7c1.2,0.4,1.7,1.4,1.2,2.5c-0.4,0.9-0.9,1.8-1.6,2.4c-1.1,1.1-2.4,0.7-2.8-0.8
		C277.8,102.9,277.7,102.3,277.6,102z"></path>
	<path class="fill-primary" d="M191.1,96.7c-0.3,1.3-0.5,2.6-0.9,3.9c-0.1,0.5-0.7,0.8-1,1.2c-0.3-0.4-0.7-0.9-0.8-1.3c-0.2-1.7,0.1-3.4,1-4.9
		c0.2-0.3,0.6-0.5,1-0.7c0.2,0.4,0.4,0.7,0.5,1.1c0.1,0.2,0,0.5,0,0.7C191,96.7,191,96.7,191.1,96.7z"></path>
</g>
<g id="icon">
	<path class="fill-primary" d="M112,151.1c-0.1,3.4-3,5.8-6.3,5.1c-4.2-0.8-6.9-3.5-8-7.5c-0.9-3.2,0.7-5.6,4.1-5.9c4.5-0.4,8.8,2.4,10,6.6
		C111.9,150,112,150.5,112,151.1z"></path>
	<path class="fill-primary" d="M139.6,34.7c0-0.4,0-0.7,0.1-0.9c1.4-4.3,3.5-8,7.3-10.7c0.9-0.7,2-1.1,3.1-1.4c1.8-0.5,3.5-0.2,4.8,1.3s1.6,3.3,0.9,5.2
		c-0.9,2.4-3.3,4.1-5.8,4.1c-0.5,0-1,0-1.6,0C145.2,31.7,142.2,32.1,139.6,34.7z"></path>
	<path class="fill-primary" d="M21.1,107.2c2.3,0.2,4.7,0.4,7,0.7c0.6,0.1,1.2,0.7,1.8,1c-0.6,0.2-1.2,0.5-1.8,0.5c-1.9,0.1-3.6,0.8-5.2,1.9
		c-2.4,1.6-4.9,3.2-7.4,4.7c-2.2,1.3-3.8,1-5-0.7c-1.2-1.8-0.9-4.2,0.8-5.7s3.8-2,6.1-2.2c1.2-0.1,2.4,0,3.6,0
		C21,107.4,21,107.3,21.1,107.2z"></path>
	<path class="fill-primary" d="M38.8,76.7c-1.1-0.1-2.2-0.2-3.2-0.4c-2.9-0.5-5.7-1.4-8.3-2.9c-2.1-1.2-3.2-3.6-2.6-5.9c0.6-2.3,2.5-3.3,4.7-2.5
		c1.6,0.6,2.6,1.9,3.5,3.3c1.2,1.9,2.5,3.8,3.8,5.6c0.4,0.5,1,0.9,1.5,1.3c0.3,0.3,0.6,0.6,0.8,0.9C38.9,76.5,38.9,76.6,38.8,76.7z"></path>
	<path class="fill-primary" d="M45,141.1c-2,3.8-3.1,7.8-4.4,11.8c-0.3,0.8-0.6,1.6-1.1,2.3c-1.3,1.9-3.7,1.9-5-0.1c-0.9-1.5-1.3-3.2-0.5-4.8
		c0.8-1.5,1.8-3.1,3.1-4.2c1.9-1.7,4.2-3,6.3-4.5C44,141.4,44.6,141.3,45,141.1z"></path>
	<path class="fill-primary" d="M144.1,71.8c-2.4,0-4.3-1.3-4.8-3.4c-0.2-0.7-0.1-1.5,0.1-2.2c0.7-2,3.9-3.2,6.1-2.5c2,0.7,3.3,3,2.8,5.2
		C147.9,70.8,146.4,71.9,144.1,71.8z"></path>
	<path class="fill-primary" d="M30.5,57.6c-0.9-0.2-1.9-0.4-2.9-0.8c-1.4-0.6-2.1-2.1-1.9-3.5c0.2-1.6,0.9-3,2.6-3.5c1.9-0.5,3.1,0.7,4.3,1.9
		c1.1,1.1,2.1,2.4,1.7,4.1c-0.1,0.5-0.8,1.1-1.3,1.4C32.3,57.4,31.5,57.4,30.5,57.6z"></path>
	<path class="fill-primary" d="M42.3,130.6c-0.8-0.4-1.6-0.5-1.8-1c-0.2-0.4,0-1.2,0.3-1.6c0.7-1,1.5-1.9,2.5-2.7c0.9-0.7,2-0.7,2.9,0.1
		c0.5,0.4,0.7,1.2,0.8,1.9c0,0.5-0.4,1.2-0.8,1.4C44.9,129.4,43.6,130,42.3,130.6z"></path>
	<path class="fill-primary" d="M141.3,108.9c0.4,0.1,0.8,0.1,1.1,0.2c2.3,0.9,4.1,2.4,5.4,4.6c0.2,0.4,0.1,1,0.2,1.5c-0.5,0-1,0.1-1.4-0.1
		c-2.2-1-4.2-2.4-5.7-4.5c-0.2-0.3-0.3-0.9-0.3-1.3C140.6,109.1,141.1,109,141.3,108.9z"></path>
	<path class="fill-primary" d="M154.7,79.6c-1.7,0.2-3.3,0.7-4.9,1.1c-3.8,0.9-7.6,1.3-11.4,0.1c-6-1.8-9.4-6.4-8.7-12.2c0.3-2.6,1.3-5.1,2.2-7.5
		c1.2-3.1,2.8-6,4-9.1c0.6-1.6,1-3.5,1.1-5.2s-0.9-3.1-2.5-3.7c-1.6-0.6-2.6,0.4-3.5,1.4c-1.1,1.2-2.1,2.5-3.2,3.7
		c-3,3.3-6.7,4.9-11.3,4.4c-5.1-0.5-8.6-3.5-9.9-8.4c-1-3.9-0.7-7.8-0.1-11.7c0.2-1.4,0.4-2.8,0.6-4.2c-0.1,0-0.3-0.1-0.4-0.1
		c-1.3,2.4-2.6,4.7-3.7,7.2c-3.2,6.9-8.8,10.4-16,11.8c-5,1-8.7-1.4-9.7-6c-0.2-0.8-0.4-1.7-0.3-2.5c0.3-3.1,0.8-6.2,1.2-9.4
		c0.4-2.8,0.6-5.6-0.2-8.4c-0.6-2.1-2-3.3-3.6-3.3c-1.7,0-3.3,1.2-3.8,3.1c-0.2,0.8-0.3,1.8-0.2,2.6c0.3,1.6,0.8,3.1,1.2,4.6
		c0.9,3.8,1.6,7.6,0.9,11.6C71.4,45.1,63.6,51,56.8,45c-0.5-0.4-1-0.8-1.4-1.3c-2.2-2.6-4.2-5.2-6.4-7.7c-1.8-2-3.6-4.1-5.7-5.8
		c-2.2-1.7-4.7-1.5-7.1,0c-2.2,1.4-3,3.4-2.7,6c0.2,1.8,1.2,3.3,2.4,4.6c1.8,1.9,4,3.3,6.5,4.2c2.2,0.8,4.4,1.4,6.6,2.2
		c4.5,1.6,8.1,4.4,9.4,9.2c1,3.5-0.3,5.8-3.8,6.7c-1.1,0.3-2.3,0.4-3.4,0.2c-3.9-0.5-7.1-2.5-10.2-4.7c-0.4-0.3-0.9-0.6-1.3-0.9
		c0.6,1.1,1.4,2,2.1,2.9c2.8,3.3,5.4,6.7,6.6,10.9c1.5,4.9,0.1,8.9-4.1,11.7c-1.7,1.1-3.6,2.1-5.5,2.6c-4,1.1-8.1,1.9-11.2,2.6
		c1.1,0.1,3.2,0.1,5.2,0.4c2.2,0.3,4.5,0.8,6.6,1.5c1.7,0.6,2.2,2.1,1.6,3.8c-0.2,0.6-0.5,1.2-0.8,1.7c-0.4,0.8-0.8,1.6-1,2.4
		c-0.5,1.6-0.1,2.6,1.3,3.5c0.8,0.5,1.7,0.9,2.5,1.4c2.2,1.4,3.7,3.3,3.7,6c0.1,3.7-2.3,6.9-6.1,8.1c-1.9,0.6-3.9,1.1-5.8,1.8
		c-1.3,0.5-2.7,1.1-3.8,1.9c-1.7,1.2-1.7,3.3-0.2,5.2c1.1,1.3,2.2,1.2,3.9-0.3c1.2-1,2.2-2.2,3.4-3.3c1.9-1.8,3.8-3.4,6.4-3.9
		c4-0.8,8.2,0.7,7.2,6.5c-0.3,1.6-0.6,3.1-0.7,4.7c-0.3,2.6-0.4,5.2,1.7,7.3c2.4,2.4,5.9,2.8,9.4,1c1.7-0.9,3.3-2,5-3
		c1.8-1.1,3.7-1.8,5.8-1.5c7.7,0.8,12.8,7.7,11.4,15.3c-0.3,1.7-0.6,3.5-0.7,5.2c0,0.6,0.3,1.4,0.8,1.7c2,1.5,5.3,0.4,5.8-2.1
		c0.3-1.5,0.3-3,0.2-4.5c-0.2-2.9-0.7-5.7-0.7-8.6c-0.1-6,3.7-9.2,9.7-8.1c1.9,0.3,3.7,1.1,5.6,1.6c2.3,0.6,3.3-0.1,3.9-2.4
		c0.4-1.5,0.9-3.1,1.6-4.5s1.8-1.5,2.8-0.2c0.6,0.8,1.2,1.7,1.6,2.7c0.8,2,1.4,4.1,2.1,6.1c1.3,3.9,2.9,7.6,5.5,10.8
		c1.3,1.6,2.8,3,4.8,3.6c2.4,0.8,4.9-0.1,5.9-2.1c1.1-2.1,0.6-4.7-1.4-6.2c-1.3-0.9-2.7-1.6-4.2-2.3c-3.9-1.8-6.8-4.5-8-8.7
		c-1.2-4.1-0.8-7.9,1.9-11.3c1.5-1.9,3.4-2.2,5.6-1c1,0.5,2,1.2,3,1.8c4.4,2.7,8.7,5.4,13.1,8c0.4,0.3,0.9,0.4,1.3,0.7
		c0.2-0.2,0.3-0.4,0.5-0.5c-0.5-0.3-1.1-0.5-1.5-0.9c-2.7-2.6-5.4-5.1-7.9-7.8c-2.1-2.2-4-4.6-4.8-7.6c-0.8-2.6,0.1-4.4,2.7-5.5
		c0.7-0.3,1.4-0.5,2.2-0.7c1.4-0.5,2.8-0.9,4.1-1.5c2-1,2.8-2.6,2.2-4.7s-1.7-4-2.6-6c-0.7-1.6-1.4-3.1-1.9-4.7
		c-0.4-1.4,0.3-2.2,1.7-2.5c0.5-0.1,1.1-0.1,1.7,0c2.6,0.4,5.2,1,7.8,1.4c5,0.8,7.9-1.1,8.6-5.5C157.3,80.2,156.6,79.3,154.7,79.6z
		 M121.4,101.6c-0.8,3.8-2.7,7.1-5,10.3c-10.6,14.7-31.3,18.5-46.4,8.5c-1.8-1.2-2.9-2.8-3.5-4.8c-0.1-0.4-0.4-0.9-0.6-1.3
		c-0.3-0.8-1.3-1.6,0.3-2.2c0.1,0,0.2-0.5,0.1-0.8c-0.1-0.6-0.1-1.1-0.3-1.6c-0.5-1.3-0.7-2.6-0.1-4c0.3-0.9,0-1.7-1-2.3
		c-0.9-0.6-1.9-0.7-2.6-1.2c-0.9-0.6-2.4-0.8-2.8-2.4c-0.2-1-0.6-2.1-1.9-2.6c-0.4-0.1-0.6-0.8-0.9-1.2c-0.4-0.6-0.5-1.4-1.5-1.5
		c-0.2,0-0.5-0.6-0.5-0.9c0.1-1.2,0.3-2.4,0.3-3.6c0-0.8-0.2-1.6-0.1-2.4c0.5-4.1,1.6-8.1,3.8-11.6c0.8-1.3,1.6-2.7,2.5-4
		c0.4-0.6,1.2-0.9,1.9-1.2c1.1-0.4,1.3-1.2,1.5-2.1c0.1-0.3,0.1-0.7,0.3-0.9c1.9-2.2,4.2-3.7,6.7-5c-0.6,0.9-1.2,1.8-1.8,2.7
		c-0.1,0.1,0.3,0.4,0.4,0.6c0.9-0.6,1.6-1.2,2.4-1.7c1.4-0.8,2.8-1.5,4.2-2.2c0.6-0.3,1.4-0.2,2-0.5c1.5-0.8,2.9-1.8,4.4-2.7
		c2-1.2,4.1-1.4,6.3-0.6c0.3,0.1,0.8,0.1,1.2,0c2-0.7,3.8,0.2,5.7,0.4c0.5,0.1,1,0.8,1.2,1.3c0.4,0.9,1.1,1.3,2,1.4
		c-0.6-0.7-1.2-1.3-1.9-2c0.1-0.1,0.2-0.2,0.3-0.4c0.9,0.3,2,0.5,2.8,1c0.6,0.4,0.9,1.2,1.5,2c-0.6-0.2-1.1-0.3-1.8-0.5
		c0.3,0.3,0.5,0.4,0.7,0.6c-0.8,0.3-1.6,0.6-2.5,0.9c-0.1-0.2-0.2-0.7-0.3-1.2c-0.2,0.2-0.4,0.4-0.6,0.6c0.2,0.3,0.4,0.6,0.5,0.8
		c-0.3,0.3-0.6,0.7-1,1.2c-0.6-0.3-1.4-0.6-2.2-1c0-0.1,0.1-0.2,0.1-0.3c0.7,0.1,1.5,0.1,2.2,0.2c0-0.1,0.1-0.3,0.1-0.4
		c-0.3-0.2-0.6-0.5-1-0.6c-1.1-0.5-2.3-0.9-3.4-1.3c-1.1-0.4-2.9,0.5-3.6,1.5c-0.6,0.8-1.4,1.5-2.2,2.2c-0.4,0.3-0.9,0.5-1.1,0.9
		C86,66,85.9,66.6,86,67c0,0.2,0.6,0.3,0.9,0.4c0.3,0,0.7-0.1,1.1-0.1c0.2,0.7,0.5,1.4,0.8,2.1c1.7,0.3,1.2-1.8,2.4-2.1
		c-1-0.8-1-1.6,0.1-2.2c0.2-0.1,0.4-0.4,0.6-0.6s0.5-0.4,0.8-0.6c-0.1,0.4,0,0.8-0.2,1c-0.5,0.6-0.8,1.2,0,1.7
		c0.3,0.2,0.8,0.2,1.2,0.2c0.4,0,0.8-0.1,1.3-0.1c0,0.1,0.1,0.3,0.1,0.4c-0.8,0.2-1.7,0.5-2.5,0.7c0.4,0.3,0.6,0.5,0.9,0.7
		c-0.3,0.1-0.6,0.1-1.1,0.3c0,0.2-0.1,0.6-0.3,1.2c-1.4,0.1-2.9,0.2-4.3,0.4c0-0.1,0-0.2-0.1-0.4c0.3-0.1,0.6-0.2,1-0.3
		c-0.4-0.5-0.7-0.9-1.3-1.6c-0.2,0.9-0.4,1.6-0.5,2.3c-1.9,1.1-3.9,2.2-5.8,3.3c0.2,0.3,0.6,0.8,0.8,1.4c0.3,0.8-0.4,1.6-1.2,1.4
		c-2.8-0.4-2.8-0.4-3.1,2.6c0,0.3,0,0.5,0,0.7c1.5,1.3,2.7,0.1,4-0.2c0.1,0,0.2-0.3,0.3-0.5c0.3-0.4,0.5-0.8,0.9-1.1
		c0.4-0.4,0.9-0.7,1.5-1.2c0.5-0.1,1.2-0.3,2-0.5c0.2,0,0.5-0.1,0.5,0c1,1,2,1.9,2.9,2.9c0.1,0.1,0,0.2,0,0.4
		c-0.5,0.1-0.9,0.2-1.4,0.3c0.8,0.7,0.8,0.7,2.5-1.4c-0.9-0.9-2.5-1.3-2.4-3c0.9,0.7,1.8,1.2,2.6,2c0.5,0.5,0.6,1.2,0.9,1.8
		c0.3,0.5,0.6,1.1,0.9,1.6c0.6-0.4,0.9-0.7,1.1-0.8c-0.3-0.3-0.6-0.7-1-1.1c1.8-0.7,1.8-0.7,2.3,0.8c0.5,1.4,0.6,1.3,2.2,1.2
		c0.7-0.1,1.4,0.2,2.1,0c0.1,0,0.4,0.2,0.4,0.3c-0.2,0.9-0.3,1.8-0.7,2.6c-0.2,0.4-1,0.6-1.5,0.5c-1.6-0.2-3.1-0.7-4.6-1
		c-0.4-0.1-0.8-0.1-1.2-0.2c-0.1,0.5-0.2,0.9-0.4,1.5c-1-0.4-1.8-0.8-2.7-1.2c-0.2-0.1-0.5-0.3-0.7-0.4c-1.1-0.3-1.7-1.3-1.3-2.6
		c-0.4,0-0.7-0.1-1-0.1c-1.3,0.1-2.7,0.1-4,0.3c-1,0.1-2.1,0.2-3.1,0.5c-0.3,0.1-0.5,0.5-0.7,0.7c-0.8,0.7-1.7,1.2-1.8,2.4
		c0,0.3-0.7,0.6-0.9,0.9c-1.2,1.4-2.3,2.9-3.5,4.4c1.6,0.9,0.9,2.1,0.7,3.1c-0.3,1.2,0,2.1,0.9,3c0.8,0.7,1.4,1.6,2.1,2.4
		c0.6,0.6,1.2,1.4,2.2,0.7c0.1-0.1,0.4-0.2,0.6-0.1c1.5,0.7,2.9-0.3,4.3-0.4c0.2,0,0.6,0,0.7,0.1c0.4,1.5,1.7,0.9,2.8,1.1
		c-0.1,0.9-0.3,1.7-0.4,2.6c0,0.3,0,0.6,0.1,0.8c0.5,1.1,1.2,2.1,1.7,3.1c0.4,0.8,0.4,1.7-0.1,2.6c-0.6,0.9-0.5,1.8-0.1,2.8
		c0.8,1.9,1.3,3.9,2,5.9c0.1,0.3,0.7,0.5,1,0.5c2.2-0.2,4.2-0.9,5.2-3.2c0.1-0.2,0.3-0.4,0.5-0.5c0.8-0.3,1.1-0.9,1.1-1.8
		c0-0.3,0.4-0.9,0.7-1.1c2.2-1,3.1-2.7,2.7-5.1c-0.3-1.7,0.8-2.9,2-3.9c1-0.9,2.1-1.7,3.1-2.6s1.8-2,1.9-3.6
		c-0.9,0.1-1.6,0.2-2.4,0.2c-0.3,0-0.8-0.2-1-0.5c-0.6-0.7-1.1-1.4-1.7-2.1c-0.7-0.7-1.2-1.5-1.3-2.6c-0.1-0.9-0.6-1.7-1-2.5
		c-0.5-1-0.9-1.9-1.5-3c1.4,0.1,1.9,0.9,2.4,2.1c0.4,1.3,1.4,2.4,2,3.7c0.4,0.9,0.8,1.8,1,2.7c0.2,0.8,0.3,1.3,1.3,0.7
		c1.3-0.8,2.9-1.2,4.2-2.1c1-0.7,1.7-1.9,2.4-2.9c0.1-0.2-0.6-1-1-1.5c-0.2-0.3-0.6-0.4-0.9-0.5c-0.3,0.1-0.9,0.4-1.8,0.8
		c0.2-0.5,0.2-0.7,0.3-0.9c-1.2-0.3-2-1.5-1.8-3.2c0.5,0.5,0.9,0.8,1.2,1.2c0.5,0.7,1,1,1.9,1c0.7,0,1.3,0.6,1.9,0.8
		c0.3,0.1,0.7,0.2,1,0.2c1.7,0,1.9,0.2,2.7,1.8c0.1,0.3,0.6,0.5,0.9,0.7c0.1-0.1,0.2-0.2,0.3-0.2c0.3,2.5,0.6,5,0.9,7.5
		c0.1,0,0.3,0.1,0.4,0.1c0.8-2.8,1.3-5.8,3.4-8.3c0.1,0.5,0.2,0.8,0.3,1.1C122.8,94.2,122.2,98,121.4,101.6z"></path>
	<path class="fill-primary" d="M105,108.7c-0.6,1.2-1,2.1-1.5,3.1c-0.5,0.8-1,1.5-1.6,2.1c-0.3,0.3-0.8,0.3-1.2,0.5c-0.1-0.4-0.3-0.8-0.2-1.1
		c0.3-0.9,0.8-1.7,1.2-2.5c0.1-0.1,0.2-0.3,0.3-0.4C102.9,109.9,103.7,109.4,105,108.7z"></path>
	<path class="fill-primary" d="M82.5,67.5c0,0.6,0.1,1.1,0.1,1.6c-0.1,0-0.1,0-0.2,0c0.5,0.7,0.9,1.4,1.4,2.2c-0.4,1.6-1.9,0.5-2.7,1
		c0.2-0.1,0.4-0.3,0.5-0.4c-0.1-0.1-0.2-0.1-0.3-0.2c0.1-0.3,0.2-0.6,0.3-0.9c0.1-0.3,0.4-0.7,0.3-0.8C81,68.6,81,68.6,82.5,67.5z"></path>
	<path class="fill-primary" d="M78.9,71.5c0.8-1.9,0.8-1.9,2-1.8C80.6,71.2,80.5,71.3,78.9,71.5z"></path>
	<path class="fill-primary" d="M77.6,64.6c0.5-2.1,2-0.7,2.9-1.6c0,0.5,0,0.8-0.1,0.9C79.6,64.2,78.7,64.4,77.6,64.6z"></path>
</g>
</svg>